<svg width="36" height="30" viewBox="0 0 36 30" fill="none" xmlns="http://www.w3.org/2000/svg">
<path d="M23.4196 20.4261L23.1995 20.319C24.6112 18.5155 25.3554 16.297 25.3105 14.0262C25.2655 11.7553 24.4339 9.56666 22.9518 7.81807C21.4697 6.06948 19.4248 4.86449 17.1514 4.40018C14.8781 3.93587 12.511 4.23972 10.4372 5.26203L9.33175 2.77933C9.27559 2.64793 9.18533 2.53314 9.06989 2.44632C8.95445 2.35951 8.81783 2.30368 8.67356 2.28435C8.52928 2.26502 8.38235 2.28286 8.24729 2.33612C8.11223 2.38937 7.99372 2.47619 7.9035 2.58798C7.79158 2.72221 7.72315 2.88604 7.70694 3.05851C7.69073 3.23098 7.72749 3.40426 7.81252 3.55619L9.17132 5.99584C8.22711 6.64013 7.40037 7.43509 6.72568 8.34747L4.20179 6.29242C4.11036 6.21812 4.0036 6.164 3.88881 6.13377C3.77402 6.10353 3.65391 6.0979 3.53669 6.11725C3.41947 6.13659 3.30791 6.18047 3.20962 6.24588C3.11134 6.31128 3.02866 6.39667 2.96723 6.49621C2.83243 6.70172 2.78308 6.94986 2.82927 7.1898C2.87547 7.42974 3.01372 7.64333 3.21571 7.78683L5.92743 9.61418C4.78422 11.7687 4.47822 14.2555 5.06609 16.6138C5.65397 18.9721 7.09588 21.0422 9.12473 22.4404C11.1536 23.8387 13.6319 24.4705 16.1005 24.2187C18.5691 23.9669 20.8607 22.8486 22.5509 21.071L22.9813 21.2824C23.4113 21.4925 23.7562 21.8385 23.96 22.2643C24.1638 22.69 24.2146 23.1706 24.1042 23.6282C23.9938 24.0857 23.7287 24.4934 23.3518 24.7852C22.9748 25.0769 22.5082 25.2356 22.0275 25.2356H13.5735C13.0546 25.2356 12.5569 25.4372 12.19 25.796C11.8231 26.1549 11.617 26.6416 11.617 27.149C11.617 27.6565 11.8231 28.1432 12.19 28.5021C12.5569 28.8609 13.0546 29.0625 13.5735 29.0625H17.4865C17.6162 29.0625 17.7406 29.0121 17.8323 28.9224C17.9241 28.8327 17.9756 28.711 17.9756 28.5841C17.9756 28.4573 17.9241 28.3356 17.8323 28.2459C17.7406 28.1562 17.6162 28.1058 17.4865 28.1058H13.5735C13.314 28.1058 13.0652 28.005 12.8817 27.8256C12.6983 27.6461 12.5952 27.4028 12.5952 27.149C12.5952 26.8953 12.6983 26.652 12.8817 26.4725C13.0652 26.2931 13.314 26.1923 13.5735 26.1923H22.0275C22.7294 26.1937 23.411 25.9629 23.9618 25.5375C24.5126 25.1121 24.9001 24.517 25.0613 23.849C25.2226 23.181 25.1482 22.4793 24.8501 21.8579C24.5521 21.2365 24.0479 20.7319 23.4196 20.4261ZM21.1814 19.5546C18.5329 18.5429 16.1421 16.9784 14.1756 14.97C12.2091 12.9617 10.7143 10.558 9.79544 7.92651L9.89914 7.84997C10.0948 7.6969 10.3041 7.55052 10.5184 7.41466C10.8308 7.21694 11.1552 7.04122 11.4917 6.88751C11.6365 7.29699 11.7996 7.7087 11.9809 8.12264C12.1198 8.44601 12.2691 8.76939 12.4289 9.09276C12.8383 9.92475 13.3088 10.7267 13.8366 11.4922C14.209 12.0337 14.6104 12.5542 15.0408 13.0536C15.2508 13.296 15.4687 13.5336 15.6943 13.7664C16.4071 14.5012 17.1886 15.1694 18.0284 15.7621C18.8219 16.3199 19.665 16.8069 20.5474 17.2173C21.1588 17.502 21.7873 17.7499 22.4296 17.9597C22.137 18.5123 21.7813 19.0306 21.3692 19.5048C21.3038 19.5089 21.2399 19.5258 21.1814 19.5546ZM13.2184 8.49863C14.3619 7.66628 15.576 6.9296 16.8457 6.29816C17.7317 6.49057 18.5789 6.82517 19.353 7.28838C17.4927 8.02409 15.7265 8.96934 14.09 10.105C13.7722 9.58409 13.4813 9.04797 13.2184 8.49863ZM16.4544 13.1608C18.1687 11.7773 20.219 10.85 22.4071 10.4685C22.7348 11.0818 22.9813 11.7343 23.1388 12.4097C21.2898 12.7357 19.5424 13.4739 18.0323 14.5671C17.4734 14.1334 16.9475 13.6646 16.4544 13.1608ZM22.8219 17.0833C22.4424 16.9585 22.0669 16.8222 21.6959 16.6748C22.1446 16.4989 22.609 16.3641 23.0831 16.272C23.0096 16.5452 22.9224 16.8147 22.8219 17.0795V17.0833ZM23.2817 15.2656C22.3204 15.4082 21.3895 15.7039 20.5259 16.141C19.9516 15.8508 19.3962 15.5262 18.8629 15.1689C20.188 14.2498 21.7047 13.6291 23.3042 13.3511C23.3782 13.9874 23.3703 14.6303 23.2807 15.2646L23.2817 15.2656ZM21.8573 9.58356C19.6339 10.0563 17.5569 11.0384 15.797 12.449C15.3734 11.9606 14.9778 11.4496 14.6124 10.9182C16.3745 9.694 18.2908 8.69716 20.3136 7.95234C20.9013 8.4253 21.4206 8.97404 21.8573 9.58356ZM15.1631 6.10682C14.3414 6.53735 13.55 7.01571 12.7889 7.54191C12.6496 7.20721 12.5191 6.86905 12.3976 6.52778C13.2493 6.24676 14.142 6.10265 15.0408 6.10108C15.0819 6.10108 15.122 6.10682 15.1631 6.10682ZM8.39067 9.36638C8.55639 9.15114 8.73234 8.94362 8.91795 8.74451C8.95252 8.70624 8.98773 8.66861 9.0236 8.63162C9.9983 11.2599 11.5252 13.6594 13.506 15.6753C15.4868 17.6913 17.8775 19.279 20.524 20.3362C19.9342 20.8438 19.2738 21.267 18.5626 21.5933C17.671 21.1856 16.8091 20.7186 15.9829 20.1956C15.2389 19.7238 14.5268 19.2055 13.8513 18.6438C13.0793 18.0028 12.3546 17.3094 11.6825 16.5686C10.9863 15.8032 10.3456 14.9912 9.76512 14.1385C9.20187 13.3175 8.69122 12.4631 8.23611 11.5802C8.04046 11.2062 7.69024 10.4571 7.69122 10.4599C7.72187 10.4012 7.75448 10.3435 7.78905 10.2868C7.76296 10.3288 7.73622 10.3706 7.70883 10.4121C7.90774 10.0466 8.13437 9.69805 8.38872 9.36638H8.39067ZM17.2987 22.0535C16.8963 22.1651 16.4877 22.2461 16.0729 22.2965C16.142 22.0376 16.2333 21.786 16.3468 21.5417C16.6572 21.719 16.9745 21.8896 17.2987 22.0535ZM12.2225 21.8765C11.5727 21.6498 10.9542 21.3448 10.3814 20.9686C10.6162 20.2262 10.9351 19.5125 11.3323 18.8399C11.4758 18.5911 11.6303 18.3405 11.796 18.0879C12.2714 18.5567 12.7755 19.0108 13.3084 19.4503C13.1864 19.648 13.0719 19.8451 12.965 20.0415C12.6431 20.6218 12.3938 21.2379 12.2225 21.8765ZM7.16785 11.6329C7.29177 11.8848 7.4222 12.1364 7.55916 12.3877C7.2872 12.7296 7.0234 13.0826 6.76775 13.4468C6.82938 12.8288 6.9634 12.2203 7.16785 11.6329ZM9.14784 14.9575C8.52371 15.8415 7.9935 16.7848 7.56209 17.7731C7.16316 16.9718 6.90331 16.1111 6.79318 15.2263C7.19231 14.5758 7.62829 13.9501 8.10111 13.3492C8.42328 13.8882 8.77219 14.4243 9.14784 14.9575ZM8.16959 18.814L8.18426 18.8332C8.58534 17.7597 9.1136 16.737 9.75827 15.7851C10.1757 16.3259 10.624 16.8556 11.1034 17.3742C10.8784 17.7071 10.669 18.0439 10.4792 18.3711C10.1114 19 9.8049 19.656 9.55969 20.3391C9.04042 19.8941 8.57913 19.3884 8.18622 18.8332L8.16959 18.814ZM13.145 22.1301C13.2953 21.5514 13.5197 20.9937 13.8131 20.4701C13.8914 20.3273 13.9742 20.1825 14.0616 20.0358C14.5181 20.377 14.9945 20.7045 15.4908 21.0183C15.2862 21.4467 15.1405 21.8997 15.0575 22.3654H15.0408C14.4081 22.3635 13.7776 22.291 13.1616 22.1492L13.145 22.1301Z" fill="#FFE0E9"/>
<path d="M29.5 15.5H27C26.8583 15.5 26.7397 15.452 26.644 15.356C26.5483 15.26 26.5003 15.1413 26.5 15C26.4997 14.8587 26.5477 14.74 26.644 14.644C26.7403 14.548 26.859 14.5 27 14.5H29.5V12C29.5 11.8583 29.548 11.7397 29.644 11.644C29.74 11.5483 29.8587 11.5003 30 11.5C30.1413 11.4997 30.2602 11.5477 30.3565 11.644C30.4528 11.7403 30.5007 11.859 30.5 12V14.5H33C33.1417 14.5 33.2605 14.548 33.3565 14.644C33.4525 14.74 33.5003 14.8587 33.5 15C33.4997 15.1413 33.4517 15.2602 33.356 15.3565C33.2603 15.4528 33.1417 15.5007 33 15.5H30.5V18C30.5 18.1417 30.452 18.2605 30.356 18.3565C30.26 18.4525 30.1413 18.5003 30 18.5C29.8587 18.4997 29.74 18.4517 29.644 18.356C29.548 18.2603 29.5 18.1417 29.5 18V15.5Z" fill="#FFE0E9"/>
</svg>
