<svg width="27" height="25" viewBox="0 0 27 25" fill="none" xmlns="http://www.w3.org/2000/svg">
<path d="M19.2061 0.5H19.208C20.1429 0.497635 21.0697 0.685859 21.9336 1.05371C22.7974 1.42157 23.582 1.96235 24.2412 2.64453V2.64355C25.5669 4.01632 26.3149 5.87053 26.3203 7.80566C26.3256 9.73883 25.5891 11.5946 24.2734 12.9746L13.8711 23.6553C13.7478 23.7813 13.5831 23.8496 13.4141 23.8496C13.2873 23.8496 13.1628 23.8116 13.0566 23.7393L12.957 23.6553L2.55469 12.9746H2.55371C1.23842 11.599 0.500054 9.74812 0.5 7.81836L0.508789 7.45703C0.594813 5.65874 1.32078 3.95166 2.55371 2.66211C3.88726 1.2971 5.69357 0.532331 7.57422 0.532227C9.33751 0.532227 11.0356 1.20419 12.3398 2.41309L12.5957 2.66211L13.0254 3.10254L13.3896 3.47461L13.7471 3.0957L14.1719 2.64355L14.1729 2.64453C14.832 1.96237 15.6166 1.42157 16.4805 1.05371C17.2363 0.731873 18.0401 0.547278 18.8555 0.507812L19.2061 0.5Z" fill="#FFE0E9" stroke="#B9375E"/>
</svg>
