<svg width="25" height="25" viewBox="0 0 25 25" fill="none" xmlns="http://www.w3.org/2000/svg">
<path d="M9.29102 2.7334C5.66281 2.7334 2.7334 5.66281 2.7334 9.29102C2.7334 12.9192 5.66281 15.8486 9.29102 15.8486C12.9192 15.8486 15.8486 12.9192 15.8486 9.29102C15.8486 5.66281 12.9192 2.7334 9.29102 2.7334ZM15.8486 16.6875L15.8135 16.6514L15.4277 16.251L15.3457 16.166L15.2559 16.2432C13.6481 17.6252 11.5613 18.457 9.29102 18.457C7.47815 18.457 5.70558 17.9193 4.19824 16.9121C2.69108 15.9049 1.51596 14.4736 0.822266 12.7988C0.128554 11.124 -0.0528424 9.28089 0.300781 7.50293C0.654454 5.7249 1.52768 4.09146 2.80957 2.80957C4.09146 1.52768 5.7249 0.654454 7.50293 0.300781C9.28089 -0.0528424 11.124 0.128554 12.7988 0.822266C14.4736 1.51596 15.9049 2.69108 16.9121 4.19824C17.9193 5.70558 18.457 7.47815 18.457 9.29102L18.4482 9.70117C18.358 11.7437 17.5834 13.7015 16.2432 15.2559L16.166 15.3457L16.251 15.4277L16.6514 15.8135L16.6875 15.8486H17.8164L24.8223 22.8701L22.8701 24.8223L15.8486 17.8154V16.6875Z" fill="#FFE0E9" stroke="#FFE0E9" stroke-width="0.25"/>
</svg>
